# xmcd
# 
# Track frame offsets:
#     150
#     19502
#     36319
#     47872
#     54665
# 
# Disc length: 1043
# 
# Revision: 13
# Processed by: cddbd v1.5.2PL0 Copyright (c) Steve Scherf et al.
# Submitted via: fre:ac v1.0.31
# 
DISCID=3c041105
DTITLE=Queen - The Game Disc 2
DYEAR=0
DGENRE=Rock/Pop
TTITLE0=Save Me (Live in Montreal, November 1981)
TTITLE1=A Human Body (B-Side)
TTITLE2=Sail Away Sweet Sister (Take 1 with Guide Vocal)
TTITLE3=It's a Beautiful Day (Original Spontaneous Idea, April 1980)
TTITLE4=Dragon Attack (Live at Milton Keynes Bowl, June 1982)
EXTD=
EXTT0=
EXTT1=
EXTT2=
EXTT3=
EXTT4=
PLAYORDER=
